<svg width="32" height="32" viewBox="0 0 32 32" fill="none" xmlns="http://www.w3.org/2000/svg">
<path d="M11.2946 8.4292C11.4267 8.4292 11.5535 8.48165 11.6472 8.57471H11.6481C11.695 8.62119 11.7321 8.67686 11.7575 8.73779C11.7829 8.79868 11.7956 8.86422 11.7956 8.93018C11.7956 8.99612 11.7829 9.06169 11.7575 9.12256C11.7322 9.1833 11.6948 9.23829 11.6481 9.28467L6.23798 14.645L5.37469 15.4995H26.9997C27.1321 15.4995 27.2595 15.5525 27.3532 15.646C27.4469 15.7396 27.4996 15.8671 27.4997 15.9995C27.4997 16.1321 27.447 16.2602 27.3532 16.354C27.2595 16.4475 27.1321 16.4995 26.9997 16.4995H5.38251L6.23602 17.354L11.5964 22.7134L11.5983 22.7153C11.645 22.7617 11.6824 22.8167 11.7077 22.8774C11.7331 22.9383 11.7458 23.0039 11.7458 23.0698C11.7458 23.1358 11.733 23.2013 11.7077 23.2622C11.6823 23.3231 11.6452 23.3788 11.5983 23.4253C11.5517 23.4715 11.496 23.5078 11.4352 23.5327C11.3743 23.5576 11.3087 23.5702 11.2429 23.5698H11.2419C11.1436 23.5694 11.0482 23.5404 10.9675 23.4868L10.8923 23.4253L5.23309 17.7661C4.7653 17.2974 4.50262 16.6617 4.50262 15.9995C4.50275 15.3379 4.76505 14.7033 5.23212 14.2349L10.9421 8.57471C11.0357 8.48167 11.1627 8.4293 11.2946 8.4292Z" fill="#7F3DFF" stroke="white"/>
</svg>
