<svg width="32" height="33" viewBox="0 0 32 33" fill="none" xmlns="http://www.w3.org/2000/svg">
<path d="M24.4494 12.6396C24.5752 12.6445 24.6953 12.6971 24.7844 12.7861C24.8732 12.8751 24.925 12.9945 24.9299 13.1201C24.9346 13.2435 24.8924 13.3632 24.8137 13.458L19.1916 19.1416C18.3388 19.9683 17.1937 20.4242 16.006 20.4102H15.9943C14.81 20.4242 13.6677 19.9708 12.8156 19.1484L7.18475 13.458C7.1064 13.3633 7.06477 13.2431 7.06952 13.1201C7.07443 12.9944 7.12701 12.8751 7.216 12.7861C7.305 12.6971 7.42423 12.6446 7.54999 12.6396C7.673 12.6349 7.79319 12.6765 7.88788 12.7549L13.5353 18.4023C14.2005 19.0335 15.0832 19.3857 16.0002 19.3857C16.9169 19.3857 17.798 19.0333 18.4631 18.4023L18.4641 18.4033L18.4738 18.3936L24.1115 12.7549C24.2062 12.6764 24.3264 12.635 24.4494 12.6396Z" fill="black" stroke="#91919F"/>
</svg>
