<svg width="33" height="32" viewBox="0 0 33 32" fill="none" xmlns="http://www.w3.org/2000/svg">
<path d="M19.0402 5.54956C20.7641 5.5496 22.4178 6.23484 23.6368 7.45386C24.8556 8.67279 25.5401 10.3259 25.5402 12.0496C25.5402 13.6659 24.9383 15.2204 23.8585 16.4128L23.6368 16.6462L15.1466 25.1257L15.1407 25.1316C14.7277 25.5578 14.2347 25.8988 13.6896 26.1335C13.1449 26.3681 12.5589 26.4913 11.9659 26.4988C11.0759 26.4997 10.2056 26.2377 9.46497 25.7439C8.72352 25.2496 8.1451 24.5466 7.80383 23.7234C7.46258 22.9001 7.37369 21.9938 7.54797 21.1199C7.72227 20.2459 8.15239 19.4436 8.78333 18.8142V18.8132L17.2638 10.3337V10.3328C17.7324 9.86309 18.3689 9.59917 19.0323 9.59839C19.6957 9.59768 20.3322 9.86033 20.8019 10.3289C21.2716 10.7975 21.5355 11.4339 21.5363 12.0974C21.5369 12.7604 21.2748 13.3964 20.8068 13.866L12.3175 22.3552C12.2238 22.4484 12.0971 22.5007 11.965 22.5007C11.8329 22.5007 11.7061 22.4483 11.6124 22.3552L11.549 22.2791C11.5307 22.2519 11.5157 22.2225 11.5031 22.1921C11.4777 22.1312 11.464 22.0658 11.464 21.9998C11.464 21.9338 11.4777 21.8682 11.5031 21.8074C11.5284 21.7466 11.5657 21.6917 11.6124 21.6453L11.6134 21.6433L20.0929 13.1628C20.2328 13.0237 20.3442 12.8587 20.42 12.6765C20.4961 12.4939 20.5362 12.2982 20.5363 12.1003C20.5363 11.9023 20.4962 11.706 20.42 11.5232C20.344 11.3406 20.2333 11.1743 20.0929 11.0349C19.8119 10.7556 19.4315 10.5994 19.0353 10.5994C18.6391 10.5994 18.2587 10.7557 17.9777 11.0349L9.48743 19.4753L9.48645 19.4763C8.83058 20.1337 8.46197 21.0252 8.46301 21.9539C8.46411 22.8826 8.83485 23.7725 9.49231 24.4285C10.1497 25.0843 11.0403 25.4529 11.9689 25.4519C12.8973 25.4508 13.7876 25.0807 14.4435 24.4236L22.924 15.9431L22.923 15.9421C23.9553 14.911 24.5372 13.5126 24.5382 12.0535C24.5392 10.5942 23.9599 9.19447 22.9288 8.16187C21.8977 7.12923 20.4985 6.54871 19.0392 6.54761C17.5798 6.54658 16.1793 7.12477 15.1466 8.15601L15.1447 8.15796L10.214 13.1375C10.1198 13.2139 10.0015 13.2544 9.88 13.2498C9.75434 13.2448 9.63499 13.1931 9.54602 13.1042C9.45697 13.0152 9.4044 12.8951 9.39954 12.7693C9.39488 12.6463 9.43631 12.526 9.51477 12.4314L14.4435 7.45386C15.6625 6.2348 17.3162 5.54956 19.0402 5.54956Z" fill="black" stroke="#91919F"/>
</svg>
