<svg width="42" height="42" viewBox="0 0 42 42" fill="none" xmlns="http://www.w3.org/2000/svg">
<rect x="1" y="1" width="40" height="40" rx="20" fill="#FCFCFC"/>
<rect x="1" y="1" width="40" height="40" rx="20" stroke="#F1F1FA"/>
<path d="M24.0976 22.4475V23.1975C24.0976 23.69 24.0006 24.1776 23.8121 24.6326C23.6236 25.0875 23.3474 25.5009 22.9992 25.8492C22.651 26.1974 22.2376 26.4736 21.7826 26.6621C21.3276 26.8505 20.84 26.9475 20.3476 26.9475H17.9026C17.891 27.3577 17.7675 27.7569 17.5454 28.1019C17.3233 28.4469 17.0111 28.7246 16.6426 28.905C16.3352 29.0586 15.9962 29.1382 15.6526 29.1375C15.1443 29.1405 14.6499 28.9713 14.2501 28.6575L11.4676 26.475C11.1966 26.2647 10.9772 25.9952 10.8264 25.6871C10.6755 25.379 10.597 25.0405 10.597 24.6975C10.597 24.3545 10.6755 24.016 10.8264 23.7079C10.9772 23.3998 11.1966 23.1303 11.4676 22.92L14.2501 20.7375C14.5853 20.4699 14.99 20.3038 15.4166 20.2586C15.8431 20.2134 16.2737 20.2911 16.6576 20.4825C17.1687 20.727 17.5624 21.1638 17.7526 21.6975H23.3251C23.4254 21.6945 23.5254 21.7117 23.619 21.748C23.7126 21.7843 23.7979 21.8391 23.87 21.9091C23.942 21.979 23.9993 22.0627 24.0384 22.1552C24.0775 22.2477 24.0976 22.3471 24.0976 22.4475Z" fill="#D3BDFF"/>
<path d="M31.4026 17.3026C31.4026 17.6456 31.3243 17.9841 31.1735 18.2921C31.0227 18.6002 30.8035 18.8697 30.5326 19.0801L27.7501 21.2626C27.3446 21.5776 26.846 21.7491 26.3326 21.7501C25.989 21.7508 25.65 21.6712 25.3426 21.5176C24.8314 21.2731 24.4378 20.8363 24.2476 20.3026H18.6526C18.4537 20.3026 18.2629 20.2236 18.1223 20.0829C17.9816 19.9423 17.9026 19.7515 17.9026 19.5526V18.8026C17.9026 17.808 18.2977 16.8542 19.0009 16.1509C19.7042 15.4477 20.658 15.0526 21.6526 15.0526H24.0976C24.1067 14.6333 24.2329 14.2249 24.4618 13.8735C24.6907 13.5221 25.0132 13.2417 25.393 13.0638C25.7729 12.886 26.1948 12.8179 26.6113 12.8671C27.0278 12.9164 27.4222 13.0811 27.7501 13.3426L30.5326 15.5251C30.8035 15.7355 31.0227 16.005 31.1735 16.3131C31.3243 16.6211 31.4026 16.9596 31.4026 17.3026Z" fill="#7F3DFF"/>
</svg>
